<?xml version="1.0" encoding="iso-8859-1"?>
<!-- Generator: Adobe Illustrator 19.0.0, SVG Export Plug-In . SVG Version: 6.00 Build 0)  -->
<svg version="1.1" id="Layer_1" xmlns="http://www.w3.org/2000/svg" xmlns:xlink="http://www.w3.org/1999/xlink" x="0px" y="0px"
	 viewBox="0 0 512 512" style="enable-background:new 0 0 512 512;" xml:space="preserve">
<path style="fill:#415A6B;" d="M456.533,28.8v454.4c0,16-12.8,28.8-28.8,28.8H84.267c-16,0-28.8-12.8-28.8-28.8V348.8L83.2,324.267
	v-56.533H55.467v-49.067l50.133-37.333V28.8c0-16,12.8-28.8,28.8-28.8h293.333C443.733,0,456.533,12.8,456.533,28.8z"/>
<rect x="156.8" y="261.333" style="fill:#FFFFFF;" width="243.2" height="193.067"/>
<g>
	<path style="fill:#415A6B;" d="M202.667,331.733c4.267-3.2,8.533-4.267,14.933-4.267s10.667,1.067,14.933,4.267
		c4.267,3.2,6.4,7.467,6.4,11.733c0,4.267-2.133,8.533-5.333,11.733c5.333,4.267,7.467,8.533,7.467,14.933
		c0,5.333-2.133,9.6-6.4,12.8c-4.267,3.2-9.6,5.333-16,5.333c-6.4,0-11.733-2.133-16-5.333c-4.267-3.2-6.4-7.467-6.4-12.8
		c0-6.4,2.133-11.733,7.467-14.933c-3.2-3.2-5.333-7.467-5.333-11.733C198.4,339.2,198.4,334.933,202.667,331.733z M211.2,375.467
		c2.133,1.067,4.267,2.133,6.4,2.133s4.267-1.067,6.4-2.133c2.133-1.067,3.2-3.2,3.2-5.333c0-2.133-1.067-4.267-3.2-6.4
		c-2.133-1.067-4.267-2.133-6.4-2.133s-4.267,1.067-6.4,2.133c-2.133,1.067-3.2,3.2-3.2,6.4
		C208,372.267,209.067,374.4,211.2,375.467z M211.2,349.867c2.133,1.067,3.2,2.133,5.333,2.133c2.133,0,4.267-1.067,5.333-2.133
		c2.133-1.067,2.133-3.2,2.133-5.333c0-2.133-1.067-3.2-2.133-5.333c-1.067-1.067-3.2-2.133-5.333-2.133
		c-2.133,0-4.267,1.067-5.333,2.133c-1.067,1.067-2.133,3.2-2.133,5.333C209.067,346.667,210.133,347.733,211.2,349.867z"/>
	<path style="fill:#415A6B;" d="M291.2,357.333h13.867v21.333c-6.4,6.4-13.867,9.6-24.533,9.6c-8.533,0-16-3.2-22.4-8.533
		c-6.4-5.333-8.533-12.8-8.533-22.4c0-8.533,3.2-16,9.6-22.4c6.4-6.4,13.867-8.533,22.4-8.533s16,3.2,22.4,8.533l-6.4,9.6
		c-3.2-2.133-5.333-4.267-7.467-5.333s-4.267-1.067-7.467-1.067c-5.333,0-9.6,2.133-12.8,5.333c-3.2,3.2-5.333,7.467-5.333,13.867
		c0,6.4,2.133,10.667,5.333,13.867c3.2,3.2,7.467,5.333,11.733,5.333s8.533-1.067,11.733-2.133v-17.067H291.2z"/>
	<path style="fill:#415A6B;" d="M342.4,388.267h-25.6v-59.733h23.467c4.267,0,7.467,0,10.667,1.067c3.2,1.067,5.333,2.133,6.4,4.267
		c3.2,3.2,4.267,6.4,4.267,10.667c0,4.267-1.067,8.533-4.267,10.667c-1.067,1.067-2.133,1.067-2.133,1.067s-1.067,0-2.133,1.067
		c3.2,1.067,6.4,2.133,8.533,5.333c2.133,2.133,3.2,5.333,3.2,9.6s-1.067,7.467-4.267,10.667
		C356.267,386.133,349.867,388.267,342.4,388.267z M329.6,352h6.4c3.2,0,6.4,0,8.533-1.067c2.133-1.067,3.2-2.133,3.2-5.333
		c0-2.133-1.067-4.267-2.133-5.333c-2.133-1.067-4.267-1.067-8.533-1.067h-6.4V352H329.6z M329.6,376.533h9.6
		c4.267,0,6.4,0,8.533-1.067s3.2-3.2,3.2-5.333c0-3.2-1.067-4.267-3.2-5.333c-3.2-1.067-6.4-2.133-10.667-2.133H329.6V376.533z"/>
</g>
<g>
	<polygon style="fill:#FFD15C;" points="242.133,46.933 242.133,144 270.933,144 270.933,60.8 270.933,46.933 	"/>
	<rect x="331.733" y="46.933" style="fill:#FFD15C;" width="29.867" height="97.067"/>
	<rect x="377.6" y="64" style="fill:#FFD15C;" width="29.867" height="78.933"/>
	<rect x="151.467" y="64" style="fill:#FFD15C;" width="29.867" height="78.933"/>
	<rect x="286.933" y="64" style="fill:#FFD15C;" width="29.867" height="78.933"/>
	<rect x="196.267" y="64" style="fill:#FFD15C;" width="29.867" height="78.933"/>
</g>
<g>
</g>
<g>
</g>
<g>
</g>
<g>
</g>
<g>
</g>
<g>
</g>
<g>
</g>
<g>
</g>
<g>
</g>
<g>
</g>
<g>
</g>
<g>
</g>
<g>
</g>
<g>
</g>
<g>
</g>
</svg>
